<?xml version="1.0" encoding="UTF-8"?>
<svg id="Layer_1" data-name="Layer 1" xmlns="http://www.w3.org/2000/svg" xmlns:xlink="http://www.w3.org/1999/xlink" viewBox="0 0 305 151">
  <defs>
    <style>
      .cls-1 {
        fill: url(#linear-gradient);
        filter: url(#drop-shadow-1);
      }

      .cls-1, .cls-2 {
        stroke-width: 0px;
      }

      .cls-2 {
        fill: url(#linear-gradient-2);
      }
    </style>
    <linearGradient id="linear-gradient" x1="199.31" y1="4114.68" x2="105.69" y2="4276.83" gradientTransform="translate(0 4271.25) scale(1 -1)" gradientUnits="userSpaceOnUse">
      <stop offset="0" stop-color="#810111"/>
      <stop offset=".34" stop-color="#a8000a"/>
      <stop offset=".78" stop-color="#d40002"/>
      <stop offset="1" stop-color="#e60000"/>
    </linearGradient>
    <filter id="drop-shadow-1" filterUnits="userSpaceOnUse">
      <feOffset dx="0" dy="5.26"/>
      <feGaussianBlur result="blur" stdDeviation="6.57"/>
      <feFlood flood-color="#000" flood-opacity=".5"/>
      <feComposite in2="blur" operator="in"/>
      <feComposite in="SourceGraphic"/>
    </filter>
    <linearGradient id="linear-gradient-2" x1="40.45" y1="78.12" x2="263.92" y2="78.12" gradientUnits="userSpaceOnUse">
      <stop offset="0" stop-color="#ecb23f"/>
      <stop offset=".27" stop-color="#f5d190"/>
      <stop offset="1" stop-color="#ecb23f"/>
    </linearGradient>
  </defs>
  <rect class="cls-1" x="20.36" y="20.33" width="264.27" height="110.35" rx="55.17" ry="55.17"/>
  <path class="cls-2" d="m47.99,88.04c-2.33-1.35-4.16-3.2-5.51-5.57-1.35-2.37-2.02-4.99-2.02-7.86s.7-5.69,2.1-8.04c1.4-2.35,3.28-4.18,5.63-5.47,2.35-1.29,4.88-1.94,7.57-1.94s5.25.65,7.59,1.96c2.34,1.31,4.21,3.14,5.61,5.49,1.4,2.35,2.1,5.02,2.1,8,0,2.25-.39,4.32-1.18,6.22-.78,1.9-1.88,3.53-3.29,4.88l4.31,4.31-3.37,3.37-4.9-4.9c-2.14,1.05-4.43,1.57-6.86,1.57-2.85,0-5.44-.67-7.77-2.02Zm-.82-8.18c.86,1.6,2.05,2.86,3.55,3.78,1.5.93,3.18,1.39,5.04,1.39s3.43-.44,4.94-1.33c1.52-.89,2.72-2.12,3.61-3.71.89-1.58,1.33-3.38,1.33-5.39,0-1.91-.43-3.66-1.29-5.26-.86-1.6-2.05-2.86-3.55-3.79-1.5-.93-3.18-1.39-5.04-1.39s-3.43.45-4.94,1.33c-1.52.89-2.72,2.13-3.61,3.71-.89,1.58-1.33,3.38-1.33,5.39,0,1.91.43,3.66,1.29,5.26Zm31.6,9.18c-1.24-.68-2.21-1.64-2.9-2.88-.69-1.24-1.04-2.66-1.04-4.26v-13.65h5.33v11.92c0,1.83.4,3.18,1.22,4.04.81.86,1.87,1.29,3.18,1.29,1.59,0,2.87-.5,3.82-1.51.95-1.01,1.43-2.59,1.43-4.77v-10.98h5.33v21.34h-5.33v-3.3h-.16c-.6,1.1-1.48,2-2.63,2.71-1.15.71-2.47,1.06-3.96,1.06-1.62,0-3.05-.34-4.3-1.02Zm29.95-21.42c2.93,0,5.26.75,6.98,2.24,1.73,1.5,2.59,3.7,2.59,6.61v13.11h-5.33v-3.14h-.16c-.94,1.2-2,2.1-3.18,2.71-1.18.6-2.54.9-4.08.9-1.31,0-2.5-.27-3.59-.81-1.09-.54-1.94-1.31-2.57-2.3-.63-1-.94-2.16-.94-3.5,0-2.02.79-3.64,2.37-4.86,1.58-1.22,3.73-1.83,6.45-1.83h5.69v-.55c0-1.27-.45-2.23-1.33-2.89-.89-.66-2.05-.99-3.49-.99-2.12,0-3.99.76-5.61,2.28l-3.22-3.22c2.56-2.51,5.7-3.77,9.41-3.77Zm-4.02,17.37c.56.5,1.43.75,2.61.75s2.15-.23,3-.69c.85-.46,1.5-1.07,1.96-1.82.46-.75.69-1.55.69-2.39v-.16h-5.81c-1.2,0-2.05.25-2.55.73-.5.49-.75,1.09-.75,1.8s.28,1.28.84,1.78Zm17.59,8.36h2.67c.65,0,1.13-.06,1.43-.17.3-.11.56-.33.78-.64.22-.31.5-.87.84-1.67l.47-1.13v-.15h-1.1l-7.85-21.34h5.26l5.57,15.22h.16l5.45-15.22h5.22l-8.79,24.27c-.58,1.64-1.07,2.83-1.47,3.57-.41.74-.91,1.28-1.51,1.62-.6.34-1.44.51-2.51.51h-4.63v-4.86Zm37.77-27.73h-.16l-4.71,3.26-2.24-3.57,8.04-5.69h4.55v29.97h-5.49v-23.97Zm15.45,22.36c-1.73-1.39-3.01-3.24-3.84-5.57-.84-2.33-1.26-4.93-1.26-7.8s.42-5.48,1.26-7.81c.84-2.33,2.12-4.18,3.84-5.57,1.73-1.39,3.87-2.08,6.43-2.08s4.71.69,6.43,2.08c1.73,1.39,3.01,3.24,3.84,5.57.84,2.33,1.26,4.93,1.26,7.81s-.42,5.48-1.26,7.8c-.84,2.33-2.12,4.18-3.84,5.57-1.73,1.39-3.87,2.08-6.43,2.08s-4.71-.69-6.43-2.08Zm1.79-5.9c.98,2.13,2.53,3.2,4.65,3.2s3.67-1.07,4.65-3.2c.98-2.13,1.47-4.62,1.47-7.47s-.49-5.34-1.47-7.47c-.98-2.13-2.53-3.2-4.65-3.2s-3.67,1.07-4.65,3.2c-.98,2.13-1.47,4.62-1.47,7.47s.49,5.34,1.47,7.47Zm31.24,3.12v-26.2h5.33v23.38c0,.86.17,1.47.51,1.82.34.35.88.53,1.61.53h2.59v4.86h-5.65c-2.93,0-4.39-1.46-4.39-4.39Zm21.42-17.57c2.93,0,5.26.75,6.98,2.24,1.73,1.5,2.59,3.7,2.59,6.61v13.11h-5.33v-3.14h-.16c-.94,1.2-2,2.1-3.18,2.71-1.18.6-2.54.9-4.08.9-1.31,0-2.5-.27-3.59-.81-1.09-.54-1.94-1.31-2.57-2.3-.63-1-.94-2.16-.94-3.5,0-2.02.79-3.64,2.37-4.86,1.58-1.22,3.73-1.83,6.45-1.83h5.69v-.55c0-1.27-.45-2.23-1.33-2.89-.89-.66-2.05-.99-3.49-.99-2.12,0-3.99.76-5.61,2.28l-3.22-3.22c2.56-2.51,5.7-3.77,9.41-3.77Zm-1.49-6.67h3.61l4.79,4.94h-3.92l-2.51-2.2h-.31l-2.51,2.2h-3.92l4.79-4.94Zm-2.53,24.04c.56.5,1.43.75,2.61.75s2.15-.23,3-.69c.85-.46,1.5-1.07,1.96-1.82.46-.75.69-1.55.69-2.39v-.16h-5.81c-1.2,0-2.05.25-2.55.73-.5.49-.75,1.09-.75,1.8s.28,1.28.84,1.78Zm5.47-26.98h4.24l4.24,4.86h-3.61l-4.86-4.86Zm30.34,11.74c1.45,1.42,2.18,3.45,2.18,6.08v13.75h-5.33v-12.03c0-1.85-.41-3.21-1.22-4.08-.81-.87-1.87-1.31-3.18-1.31-1.57,0-2.84.5-3.8,1.5-.97,1-1.45,2.51-1.45,4.51v11.4h-5.33v-21.34h5.33v3.29h.16c.6-1.1,1.5-2.02,2.69-2.78,1.19-.76,2.54-1.14,4.06-1.14,2.48,0,4.45.71,5.9,2.13Z"/>
</svg>