<svg width="33" height="33" viewBox="0 0 33 33" fill="none" xmlns="http://www.w3.org/2000/svg">
<circle cx="16.8972" cy="16.6038" r="15.5" fill="#FFBB42" stroke="#FF8C00"/>
<path d="M21.4482 13.9195C21.4482 16.9093 18.219 16.9553 18.219 18.0601V18.3427C18.219 18.6382 17.9794 18.8778 17.6839 18.8778H15.6486C15.3531 18.8778 15.1135 18.6382 15.1135 18.3427V17.9566C15.1135 16.3628 16.3219 15.7256 17.235 15.2137C18.018 14.7747 18.4979 14.4761 18.4979 13.8948C18.4979 13.1258 17.517 12.6154 16.724 12.6154C15.69 12.6154 15.2127 13.1048 14.5417 13.9517C14.3608 14.18 14.0307 14.2224 13.7986 14.0464L12.558 13.1056C12.3302 12.933 12.2792 12.6122 12.4401 12.376C13.4936 10.829 14.8354 9.95996 16.9246 9.95996C19.1126 9.95996 21.4482 11.6679 21.4482 13.9195ZM18.539 21.3748C18.539 22.4074 17.6989 23.2475 16.6663 23.2475C15.6336 23.2475 14.7935 22.4074 14.7935 21.3748C14.7935 20.3421 15.6336 19.502 16.6663 19.502C17.6989 19.502 18.539 20.3421 18.539 21.3748Z" fill="#FFF7E8"/>
</svg>
