<svg width="33" height="33" viewBox="0 0 33 33" fill="none" xmlns="http://www.w3.org/2000/svg">
<circle cx="16.8972" cy="16.1252" r="15.5" fill="#FFBB42" stroke="#FF8C00"/>
<path fill-rule="evenodd" clip-rule="evenodd" d="M18.2901 17.202C18.0628 17.202 17.8448 17.2923 17.684 17.4531C17.5233 17.6138 17.433 17.8318 17.433 18.0592V22.7734C17.433 23.0008 17.5233 23.2188 17.684 23.3795C17.8448 23.5403 18.0628 23.6306 18.2901 23.6306H22.4687C22.696 23.6306 22.914 23.5403 23.0748 23.3795C23.2355 23.2188 23.3258 23.0008 23.3258 22.7734V18.0592C23.3258 17.8318 23.2355 17.6138 23.0748 17.4531C22.914 17.2923 22.696 17.202 22.4687 17.202H18.2901ZM11.3258 17.202C11.0985 17.202 10.8805 17.2923 10.7197 17.4531C10.559 17.6138 10.4687 17.8318 10.4687 18.0592V22.7734C10.4687 23.0008 10.559 23.2188 10.7197 23.3795C10.8805 23.5403 11.0985 23.6306 11.3258 23.6306H15.5044C15.7317 23.6306 15.9497 23.5403 16.1105 23.3795C16.2712 23.2188 16.3615 23.0008 16.3615 22.7734V18.0592C16.3615 17.8318 16.2712 17.6138 16.1105 17.4531C15.9497 17.2923 15.7317 17.202 15.5044 17.202H11.3258ZM13.5222 8.63059H13.4687C12.3222 8.63059 11.4008 9.55202 11.3794 10.6877V10.7842C11.4008 11.6199 11.7758 12.3913 12.408 12.9163H10.2544C10.0271 12.9163 9.80904 13.0066 9.6483 13.1674C9.48755 13.3281 9.39725 13.5461 9.39725 13.7734V15.2734C9.39725 15.5008 9.48755 15.7188 9.6483 15.8795C9.80904 16.0403 10.0271 16.1306 10.2544 16.1306H23.5401C23.7674 16.1306 23.9855 16.0403 24.1462 15.8795C24.3069 15.7188 24.3972 15.5008 24.3972 15.2734V13.7734C24.3972 13.5461 24.3069 13.3281 24.1462 13.1674C23.9855 13.0066 23.7674 12.9163 23.5401 12.9163H21.2901C21.9008 12.3913 22.2865 11.6306 22.2972 10.7842V10.6877C22.2758 9.5413 21.333 8.61987 20.1865 8.61987C19.0722 8.61987 18.0651 9.28416 17.6151 10.2913L17.583 10.3342L16.8972 11.952L16.1794 10.3449C15.9489 9.83253 15.5758 9.39741 15.1046 9.0915C14.6334 8.7856 14.084 8.62187 13.5222 8.61987V8.63059ZM13.4901 10.1306H13.5222C14.0687 10.1306 14.5722 10.452 14.808 10.9556L15.6008 12.777L13.6937 11.952C13.2115 11.7377 12.8901 11.277 12.8794 10.7627V10.6984C12.8901 10.377 13.1687 10.1092 13.4901 10.1092V10.1306ZM20.1865 10.1306C20.508 10.1199 20.7865 10.377 20.7972 10.6984V10.7734C20.7865 11.277 20.4758 11.7377 20.0151 11.952L19.983 11.9734L18.183 12.7663L18.9758 10.9234C19.1901 10.4413 19.6722 10.1199 20.1972 10.1199L20.1865 10.1306Z" fill="#FFF7E8"/>
</svg>
